# xmcd CD database file
#
# Track frame offsets:
#	150
#	20296
#	36038
#	56945
#	75121
#	90989
#	109867
#	125464
#	150896
#	168080
#	194003
#	215448
#	230236
#	270287
#
# Disc length: 4000 seconds
#
# Revision: 0
# Processed by: cddbd v1.5.2PL0 Copyright (c) Steve Scherf et al.
# Submitted via: CDex 1.51
#
DISCID=a70f9e0e
DTITLE=Alexandre KINN - Dans la tête d'un homme
DYEAR=2008
DGENRE=Blues
TTITLE0=Aude (emmène-moi)
TTITLE1=L'alliance
TTITLE2=Fragile
TTITLE3=Moi, moi-même et ma bouteille
TTITLE4=Tranquille
TTITLE5=J'appartiens
TTITLE6=Glisse
TTITLE7=Lentement
TTITLE8=Les jardins de Babylone
TTITLE9=Adieu Lolita
TTITLE10=Les braves gens
TTITLE11=Pour toi
TTITLE12=Dans la tête d'un homme
TTITLE13=Data
EXTD=YEAR: 2008
EXTT0=
EXTT1=
EXTT2=
EXTT3=
EXTT4=
EXTT5=
EXTT6=
EXTT7=
EXTT8=
EXTT9=
EXTT10=
EXTT11=
EXTT12=
EXTT13=
PLAYORDER=
